<mxfile host="Electron" modified="2024-06-25T14:46:34.425Z" agent="Mozilla/5.0 (Windows NT 10.0; Win64; x64) AppleWebKit/537.36 (KHTML, like Gecko) draw.io/24.5.3 Chrome/124.0.6367.207 Electron/30.0.6 Safari/537.36" etag="1LgT5tclwe3YrwMtC_d0" version="24.5.3" type="device">
  <diagram name="Page-1" id="Um4Ewu5shQ6gs-VPerFi">
    <mxGraphModel dx="1097" dy="820" grid="1" gridSize="10" guides="1" tooltips="1" connect="1" arrows="1" fold="1" page="1" pageScale="1" pageWidth="850" pageHeight="1100" math="0" shadow="0">
      <root>
        <mxCell id="0" />
        <mxCell id="1" parent="0" />
        <mxCell id="IQ94__xYUx4x06WTtn5f-1" value="Film" style="swimlane;fontStyle=0;childLayout=stackLayout;horizontal=1;startSize=26;fillColor=none;horizontalStack=0;resizeParent=1;resizeParentMax=0;resizeLast=0;collapsible=1;marginBottom=0;whiteSpace=wrap;html=1;" vertex="1" parent="1">
          <mxGeometry x="620" y="384" width="140" height="156" as="geometry" />
        </mxCell>
        <mxCell id="IQ94__xYUx4x06WTtn5f-2" value="id" style="text;strokeColor=none;fillColor=none;align=left;verticalAlign=top;spacingLeft=4;spacingRight=4;overflow=hidden;rotatable=0;points=[[0,0.5],[1,0.5]];portConstraint=eastwest;whiteSpace=wrap;html=1;" vertex="1" parent="IQ94__xYUx4x06WTtn5f-1">
          <mxGeometry y="26" width="140" height="26" as="geometry" />
        </mxCell>
        <mxCell id="IQ94__xYUx4x06WTtn5f-5" value="titre" style="text;strokeColor=none;fillColor=none;align=left;verticalAlign=top;spacingLeft=4;spacingRight=4;overflow=hidden;rotatable=0;points=[[0,0.5],[1,0.5]];portConstraint=eastwest;whiteSpace=wrap;html=1;" vertex="1" parent="IQ94__xYUx4x06WTtn5f-1">
          <mxGeometry y="52" width="140" height="26" as="geometry" />
        </mxCell>
        <mxCell id="IQ94__xYUx4x06WTtn5f-3" value="description" style="text;strokeColor=none;fillColor=none;align=left;verticalAlign=top;spacingLeft=4;spacingRight=4;overflow=hidden;rotatable=0;points=[[0,0.5],[1,0.5]];portConstraint=eastwest;whiteSpace=wrap;html=1;" vertex="1" parent="IQ94__xYUx4x06WTtn5f-1">
          <mxGeometry y="78" width="140" height="26" as="geometry" />
        </mxCell>
        <mxCell id="IQ94__xYUx4x06WTtn5f-6" value="duree" style="text;strokeColor=none;fillColor=none;align=left;verticalAlign=top;spacingLeft=4;spacingRight=4;overflow=hidden;rotatable=0;points=[[0,0.5],[1,0.5]];portConstraint=eastwest;whiteSpace=wrap;html=1;" vertex="1" parent="IQ94__xYUx4x06WTtn5f-1">
          <mxGeometry y="104" width="140" height="26" as="geometry" />
        </mxCell>
        <mxCell id="IQ94__xYUx4x06WTtn5f-7" value="image" style="text;strokeColor=none;fillColor=none;align=left;verticalAlign=top;spacingLeft=4;spacingRight=4;overflow=hidden;rotatable=0;points=[[0,0.5],[1,0.5]];portConstraint=eastwest;whiteSpace=wrap;html=1;" vertex="1" parent="IQ94__xYUx4x06WTtn5f-1">
          <mxGeometry y="130" width="140" height="26" as="geometry" />
        </mxCell>
        <mxCell id="IQ94__xYUx4x06WTtn5f-12" value="Utilisateur" style="swimlane;fontStyle=0;childLayout=stackLayout;horizontal=1;startSize=26;fillColor=none;horizontalStack=0;resizeParent=1;resizeParentMax=0;resizeLast=0;collapsible=1;marginBottom=0;whiteSpace=wrap;html=1;" vertex="1" parent="1">
          <mxGeometry x="30" y="410" width="140" height="130" as="geometry" />
        </mxCell>
        <mxCell id="IQ94__xYUx4x06WTtn5f-13" value="id" style="text;strokeColor=none;fillColor=none;align=left;verticalAlign=top;spacingLeft=4;spacingRight=4;overflow=hidden;rotatable=0;points=[[0,0.5],[1,0.5]];portConstraint=eastwest;whiteSpace=wrap;html=1;" vertex="1" parent="IQ94__xYUx4x06WTtn5f-12">
          <mxGeometry y="26" width="140" height="26" as="geometry" />
        </mxCell>
        <mxCell id="IQ94__xYUx4x06WTtn5f-14" value="nom" style="text;strokeColor=none;fillColor=none;align=left;verticalAlign=top;spacingLeft=4;spacingRight=4;overflow=hidden;rotatable=0;points=[[0,0.5],[1,0.5]];portConstraint=eastwest;whiteSpace=wrap;html=1;" vertex="1" parent="IQ94__xYUx4x06WTtn5f-12">
          <mxGeometry y="52" width="140" height="26" as="geometry" />
        </mxCell>
        <mxCell id="IQ94__xYUx4x06WTtn5f-15" value="email" style="text;strokeColor=none;fillColor=none;align=left;verticalAlign=top;spacingLeft=4;spacingRight=4;overflow=hidden;rotatable=0;points=[[0,0.5],[1,0.5]];portConstraint=eastwest;whiteSpace=wrap;html=1;" vertex="1" parent="IQ94__xYUx4x06WTtn5f-12">
          <mxGeometry y="78" width="140" height="26" as="geometry" />
        </mxCell>
        <mxCell id="IQ94__xYUx4x06WTtn5f-16" value="password" style="text;strokeColor=none;fillColor=none;align=left;verticalAlign=top;spacingLeft=4;spacingRight=4;overflow=hidden;rotatable=0;points=[[0,0.5],[1,0.5]];portConstraint=eastwest;whiteSpace=wrap;html=1;" vertex="1" parent="IQ94__xYUx4x06WTtn5f-12">
          <mxGeometry y="104" width="140" height="26" as="geometry" />
        </mxCell>
        <mxCell id="IQ94__xYUx4x06WTtn5f-17" value="" style="shape=lineEllipse;perimeter=ellipsePerimeter;whiteSpace=wrap;html=1;backgroundOutline=1;" vertex="1" parent="1">
          <mxGeometry x="310" y="338" width="170" height="150" as="geometry" />
        </mxCell>
        <mxCell id="IQ94__xYUx4x06WTtn5f-18" value="" style="endArrow=none;html=1;rounded=0;" edge="1" parent="1" source="IQ94__xYUx4x06WTtn5f-17" target="IQ94__xYUx4x06WTtn5f-12">
          <mxGeometry width="50" height="50" relative="1" as="geometry">
            <mxPoint x="400" y="750" as="sourcePoint" />
            <mxPoint x="450" y="700" as="targetPoint" />
          </mxGeometry>
        </mxCell>
        <mxCell id="IQ94__xYUx4x06WTtn5f-20" value="0,n" style="edgeLabel;html=1;align=center;verticalAlign=middle;resizable=0;points=[];" vertex="1" connectable="0" parent="IQ94__xYUx4x06WTtn5f-18">
          <mxGeometry x="0.0293" relative="1" as="geometry">
            <mxPoint as="offset" />
          </mxGeometry>
        </mxCell>
        <mxCell id="IQ94__xYUx4x06WTtn5f-19" value="" style="endArrow=none;html=1;rounded=0;" edge="1" parent="1" source="IQ94__xYUx4x06WTtn5f-17" target="IQ94__xYUx4x06WTtn5f-1">
          <mxGeometry width="50" height="50" relative="1" as="geometry">
            <mxPoint x="400" y="750" as="sourcePoint" />
            <mxPoint x="450" y="700" as="targetPoint" />
          </mxGeometry>
        </mxCell>
        <mxCell id="IQ94__xYUx4x06WTtn5f-21" value="0,n" style="edgeLabel;html=1;align=center;verticalAlign=middle;resizable=0;points=[];" vertex="1" connectable="0" parent="IQ94__xYUx4x06WTtn5f-19">
          <mxGeometry x="0.0813" relative="1" as="geometry">
            <mxPoint as="offset" />
          </mxGeometry>
        </mxCell>
        <mxCell id="IQ94__xYUx4x06WTtn5f-22" value="Un film peut être" style="text;html=1;align=center;verticalAlign=middle;resizable=0;points=[];autosize=1;strokeColor=none;fillColor=none;" vertex="1" parent="1">
          <mxGeometry x="485" y="470" width="110" height="30" as="geometry" />
        </mxCell>
        <mxCell id="IQ94__xYUx4x06WTtn5f-23" value="rajouté par 1 ou n utlisateurs" style="text;html=1;align=center;verticalAlign=middle;resizable=0;points=[];autosize=1;strokeColor=none;fillColor=none;" vertex="1" parent="1">
          <mxGeometry x="440" y="488" width="180" height="30" as="geometry" />
        </mxCell>
        <mxCell id="IQ94__xYUx4x06WTtn5f-24" value="Un utilisateur peut" style="text;html=1;align=center;verticalAlign=middle;resizable=0;points=[];autosize=1;strokeColor=none;fillColor=none;" vertex="1" parent="1">
          <mxGeometry x="190" y="488" width="120" height="30" as="geometry" />
        </mxCell>
        <mxCell id="IQ94__xYUx4x06WTtn5f-25" value="ajouter 0 (lors du signup) à n films" style="text;html=1;align=center;verticalAlign=middle;resizable=0;points=[];autosize=1;strokeColor=none;fillColor=none;" vertex="1" parent="1">
          <mxGeometry x="180" y="508" width="200" height="30" as="geometry" />
        </mxCell>
        <mxCell id="IQ94__xYUx4x06WTtn5f-28" value="MCD" style="rounded=0;whiteSpace=wrap;html=1;fillColor=#d80073;fontColor=#ffffff;strokeColor=#A50040;" vertex="1" parent="1">
          <mxGeometry x="30" y="308" width="80" height="42" as="geometry" />
        </mxCell>
        <mxCell id="IQ94__xYUx4x06WTtn5f-29" value="Style IMDB" style="shape=parallelogram;perimeter=parallelogramPerimeter;whiteSpace=wrap;html=1;fixedSize=1;" vertex="1" parent="1">
          <mxGeometry x="100" y="310" width="100" height="40" as="geometry" />
        </mxCell>
        <mxCell id="IQ94__xYUx4x06WTtn5f-30" value="Note" style="text;html=1;align=center;verticalAlign=middle;whiteSpace=wrap;rounded=0;" vertex="1" parent="1">
          <mxGeometry x="365" y="360" width="60" height="30" as="geometry" />
        </mxCell>
        <mxCell id="IQ94__xYUx4x06WTtn5f-31" value="valeur" style="text;html=1;align=center;verticalAlign=middle;whiteSpace=wrap;rounded=0;" vertex="1" parent="1">
          <mxGeometry x="365" y="430" width="60" height="30" as="geometry" />
        </mxCell>
        <mxCell id="IQ94__xYUx4x06WTtn5f-33" value="MLD" style="rounded=0;whiteSpace=wrap;html=1;fillColor=#1ba1e2;fontColor=#ffffff;strokeColor=#006EAF;" vertex="1" parent="1">
          <mxGeometry x="30" y="610" width="80" height="40" as="geometry" />
        </mxCell>
        <mxCell id="IQ94__xYUx4x06WTtn5f-34" value="Utilisateur" style="swimlane;fontStyle=0;childLayout=stackLayout;horizontal=1;startSize=26;fillColor=none;horizontalStack=0;resizeParent=1;resizeParentMax=0;resizeLast=0;collapsible=1;marginBottom=0;whiteSpace=wrap;html=1;" vertex="1" parent="1">
          <mxGeometry x="30" y="706" width="140" height="130" as="geometry" />
        </mxCell>
        <mxCell id="IQ94__xYUx4x06WTtn5f-35" value="id" style="text;strokeColor=#A50040;fillColor=#d80073;align=left;verticalAlign=top;spacingLeft=4;spacingRight=4;overflow=hidden;rotatable=0;points=[[0,0.5],[1,0.5]];portConstraint=eastwest;whiteSpace=wrap;html=1;fontColor=#ffffff;" vertex="1" parent="IQ94__xYUx4x06WTtn5f-34">
          <mxGeometry y="26" width="140" height="26" as="geometry" />
        </mxCell>
        <mxCell id="IQ94__xYUx4x06WTtn5f-36" value="nom" style="text;strokeColor=none;fillColor=none;align=left;verticalAlign=top;spacingLeft=4;spacingRight=4;overflow=hidden;rotatable=0;points=[[0,0.5],[1,0.5]];portConstraint=eastwest;whiteSpace=wrap;html=1;" vertex="1" parent="IQ94__xYUx4x06WTtn5f-34">
          <mxGeometry y="52" width="140" height="26" as="geometry" />
        </mxCell>
        <mxCell id="IQ94__xYUx4x06WTtn5f-37" value="email" style="text;strokeColor=none;fillColor=none;align=left;verticalAlign=top;spacingLeft=4;spacingRight=4;overflow=hidden;rotatable=0;points=[[0,0.5],[1,0.5]];portConstraint=eastwest;whiteSpace=wrap;html=1;" vertex="1" parent="IQ94__xYUx4x06WTtn5f-34">
          <mxGeometry y="78" width="140" height="26" as="geometry" />
        </mxCell>
        <mxCell id="IQ94__xYUx4x06WTtn5f-38" value="password" style="text;strokeColor=none;fillColor=none;align=left;verticalAlign=top;spacingLeft=4;spacingRight=4;overflow=hidden;rotatable=0;points=[[0,0.5],[1,0.5]];portConstraint=eastwest;whiteSpace=wrap;html=1;" vertex="1" parent="IQ94__xYUx4x06WTtn5f-34">
          <mxGeometry y="104" width="140" height="26" as="geometry" />
        </mxCell>
        <mxCell id="IQ94__xYUx4x06WTtn5f-39" value="Film" style="swimlane;fontStyle=0;childLayout=stackLayout;horizontal=1;startSize=26;fillColor=none;horizontalStack=0;resizeParent=1;resizeParentMax=0;resizeLast=0;collapsible=1;marginBottom=0;whiteSpace=wrap;html=1;" vertex="1" parent="1">
          <mxGeometry x="620" y="693" width="140" height="156" as="geometry" />
        </mxCell>
        <mxCell id="IQ94__xYUx4x06WTtn5f-40" value="id" style="text;strokeColor=#A50040;fillColor=#d80073;align=left;verticalAlign=top;spacingLeft=4;spacingRight=4;overflow=hidden;rotatable=0;points=[[0,0.5],[1,0.5]];portConstraint=eastwest;whiteSpace=wrap;html=1;fontColor=#ffffff;" vertex="1" parent="IQ94__xYUx4x06WTtn5f-39">
          <mxGeometry y="26" width="140" height="26" as="geometry" />
        </mxCell>
        <mxCell id="IQ94__xYUx4x06WTtn5f-41" value="titre" style="text;strokeColor=none;fillColor=none;align=left;verticalAlign=top;spacingLeft=4;spacingRight=4;overflow=hidden;rotatable=0;points=[[0,0.5],[1,0.5]];portConstraint=eastwest;whiteSpace=wrap;html=1;" vertex="1" parent="IQ94__xYUx4x06WTtn5f-39">
          <mxGeometry y="52" width="140" height="26" as="geometry" />
        </mxCell>
        <mxCell id="IQ94__xYUx4x06WTtn5f-42" value="description" style="text;strokeColor=none;fillColor=none;align=left;verticalAlign=top;spacingLeft=4;spacingRight=4;overflow=hidden;rotatable=0;points=[[0,0.5],[1,0.5]];portConstraint=eastwest;whiteSpace=wrap;html=1;" vertex="1" parent="IQ94__xYUx4x06WTtn5f-39">
          <mxGeometry y="78" width="140" height="26" as="geometry" />
        </mxCell>
        <mxCell id="IQ94__xYUx4x06WTtn5f-43" value="duree" style="text;strokeColor=none;fillColor=none;align=left;verticalAlign=top;spacingLeft=4;spacingRight=4;overflow=hidden;rotatable=0;points=[[0,0.5],[1,0.5]];portConstraint=eastwest;whiteSpace=wrap;html=1;" vertex="1" parent="IQ94__xYUx4x06WTtn5f-39">
          <mxGeometry y="104" width="140" height="26" as="geometry" />
        </mxCell>
        <mxCell id="IQ94__xYUx4x06WTtn5f-44" value="image" style="text;strokeColor=none;fillColor=none;align=left;verticalAlign=top;spacingLeft=4;spacingRight=4;overflow=hidden;rotatable=0;points=[[0,0.5],[1,0.5]];portConstraint=eastwest;whiteSpace=wrap;html=1;" vertex="1" parent="IQ94__xYUx4x06WTtn5f-39">
          <mxGeometry y="130" width="140" height="26" as="geometry" />
        </mxCell>
        <mxCell id="IQ94__xYUx4x06WTtn5f-45" value="Vue que la rélation entre les deux est n - n, on sait qu&#39;il va falloir créer un autre tableau" style="text;html=1;align=center;verticalAlign=middle;whiteSpace=wrap;rounded=0;" vertex="1" parent="1">
          <mxGeometry x="120" y="600" width="150" height="70" as="geometry" />
        </mxCell>
        <mxCell id="IQ94__xYUx4x06WTtn5f-46" value="Note" style="swimlane;fontStyle=0;childLayout=stackLayout;horizontal=1;startSize=26;fillColor=none;horizontalStack=0;resizeParent=1;resizeParentMax=0;resizeLast=0;collapsible=1;marginBottom=0;html=1;" vertex="1" parent="1">
          <mxGeometry x="325" y="693" width="140" height="130" as="geometry" />
        </mxCell>
        <mxCell id="IQ94__xYUx4x06WTtn5f-47" value="id" style="text;strokeColor=#A50040;fillColor=#d80073;align=left;verticalAlign=top;spacingLeft=4;spacingRight=4;overflow=hidden;rotatable=0;points=[[0,0.5],[1,0.5]];portConstraint=eastwest;whiteSpace=wrap;html=1;fontColor=#ffffff;" vertex="1" parent="IQ94__xYUx4x06WTtn5f-46">
          <mxGeometry y="26" width="140" height="26" as="geometry" />
        </mxCell>
        <mxCell id="IQ94__xYUx4x06WTtn5f-48" value="valeur" style="text;strokeColor=none;fillColor=none;align=left;verticalAlign=top;spacingLeft=4;spacingRight=4;overflow=hidden;rotatable=0;points=[[0,0.5],[1,0.5]];portConstraint=eastwest;whiteSpace=wrap;html=1;" vertex="1" parent="IQ94__xYUx4x06WTtn5f-46">
          <mxGeometry y="52" width="140" height="26" as="geometry" />
        </mxCell>
        <mxCell id="IQ94__xYUx4x06WTtn5f-49" value="idUtilisateur" style="text;strokeColor=#3700CC;fillColor=#6a00ff;align=left;verticalAlign=top;spacingLeft=4;spacingRight=4;overflow=hidden;rotatable=0;points=[[0,0.5],[1,0.5]];portConstraint=eastwest;whiteSpace=wrap;html=1;fontColor=#ffffff;" vertex="1" parent="IQ94__xYUx4x06WTtn5f-46">
          <mxGeometry y="78" width="140" height="26" as="geometry" />
        </mxCell>
        <mxCell id="IQ94__xYUx4x06WTtn5f-50" value="idFilm" style="text;strokeColor=#3700CC;fillColor=#6a00ff;align=left;verticalAlign=top;spacingLeft=4;spacingRight=4;overflow=hidden;rotatable=0;points=[[0,0.5],[1,0.5]];portConstraint=eastwest;whiteSpace=wrap;html=1;fontColor=#ffffff;" vertex="1" parent="IQ94__xYUx4x06WTtn5f-46">
          <mxGeometry y="104" width="140" height="26" as="geometry" />
        </mxCell>
        <mxCell id="IQ94__xYUx4x06WTtn5f-51" value="" style="endArrow=none;html=1;rounded=0;" edge="1" parent="1" source="IQ94__xYUx4x06WTtn5f-46" target="IQ94__xYUx4x06WTtn5f-34">
          <mxGeometry width="50" height="50" relative="1" as="geometry">
            <mxPoint x="400" y="730" as="sourcePoint" />
            <mxPoint x="450" y="680" as="targetPoint" />
          </mxGeometry>
        </mxCell>
        <mxCell id="IQ94__xYUx4x06WTtn5f-52" value="" style="endArrow=none;html=1;rounded=0;" edge="1" parent="1" source="IQ94__xYUx4x06WTtn5f-46" target="IQ94__xYUx4x06WTtn5f-39">
          <mxGeometry width="50" height="50" relative="1" as="geometry">
            <mxPoint x="400" y="730" as="sourcePoint" />
            <mxPoint x="450" y="680" as="targetPoint" />
          </mxGeometry>
        </mxCell>
      </root>
    </mxGraphModel>
  </diagram>
</mxfile>
